<?xml version="1.0" encoding="utf-8"?>
<!-- Generator: Adobe Illustrator 25.0.0, SVG Export Plug-In . SVG Version: 6.00 Build 0)  -->
<svg version="1.1" id="Capa_1" xmlns="http://www.w3.org/2000/svg" xmlns:xlink="http://www.w3.org/1999/xlink" x="0px" y="0px"
	 viewBox="0 0 232 232" style="enable-background:new 0 0 232 232;" xml:space="preserve">
<style type="text/css">
	.st0{fill-rule:evenodd;clip-rule:evenodd;fill:#F3F2F2;}
	.st1{fill-rule:evenodd;clip-rule:evenodd;fill:#DACD8F;}
	.st2{fill-rule:evenodd;clip-rule:evenodd;fill:#FFCD00;}
	.st3{fill-rule:evenodd;clip-rule:evenodd;fill:#002E6D;}
	.st4{filter:url(#Adobe_OpacityMaskFilter);}
	.st5{fill-rule:evenodd;clip-rule:evenodd;fill:#FFFFFF;}
	.st6{mask:url(#mask-4_1_);fill-rule:evenodd;clip-rule:evenodd;fill:#FCBFBF;}
	.st7{filter:url(#Adobe_OpacityMaskFilter_1_);}
	.st8{mask:url(#mask-6_1_);fill-rule:evenodd;clip-rule:evenodd;fill:#FCBFBF;}
	.st9{filter:url(#Adobe_OpacityMaskFilter_2_);}
	.st10{mask:url(#mask-8_1_);fill-rule:evenodd;clip-rule:evenodd;fill:#DBA8AB;}
	.st11{filter:url(#Adobe_OpacityMaskFilter_3_);}
	.st12{mask:url(#mask-10_1_);fill-rule:evenodd;clip-rule:evenodd;fill:#FCBFBF;}
	.st13{fill:none;stroke:#121E35;stroke-width:0.4;stroke-linecap:round;stroke-linejoin:round;}
	.st14{filter:url(#Adobe_OpacityMaskFilter_4_);}
	.st15{mask:url(#mask-12_1_);fill-rule:evenodd;clip-rule:evenodd;}
	.st16{filter:url(#Adobe_OpacityMaskFilter_5_);}
	.st17{mask:url(#mask-14_1_);fill-rule:evenodd;clip-rule:evenodd;}
	.st18{filter:url(#Adobe_OpacityMaskFilter_6_);}
	.st19{mask:url(#mask-16_1_);fill-rule:evenodd;clip-rule:evenodd;fill:#FFFFFF;}
	.st20{filter:url(#Adobe_OpacityMaskFilter_7_);}
	.st21{mask:url(#mask-18_1_);fill-rule:evenodd;clip-rule:evenodd;fill:#FCBFBF;}
	.st22{filter:url(#Adobe_OpacityMaskFilter_8_);}
	.st23{mask:url(#mask-20_1_);fill-rule:evenodd;clip-rule:evenodd;fill:#333333;}
	.st24{filter:url(#Adobe_OpacityMaskFilter_9_);}
	.st25{mask:url(#mask-22_1_);fill-rule:evenodd;clip-rule:evenodd;fill:#333333;}
	.st26{filter:url(#Adobe_OpacityMaskFilter_10_);}
	.st27{mask:url(#mask-24_1_);fill-rule:evenodd;clip-rule:evenodd;fill:#333333;}
	.st28{filter:url(#Adobe_OpacityMaskFilter_11_);}
	.st29{mask:url(#mask-26_1_);fill-rule:evenodd;clip-rule:evenodd;fill:#333333;}
	.st30{filter:url(#Adobe_OpacityMaskFilter_12_);}
	.st31{mask:url(#mask-28_1_);fill-rule:evenodd;clip-rule:evenodd;}
	.st32{filter:url(#Adobe_OpacityMaskFilter_13_);}
	.st33{mask:url(#mask-30_1_);fill-rule:evenodd;clip-rule:evenodd;}
	.st34{filter:url(#Adobe_OpacityMaskFilter_14_);}
	.st35{mask:url(#mask-32_1_);fill-rule:evenodd;clip-rule:evenodd;fill:#FFCD00;}
	.st36{filter:url(#Adobe_OpacityMaskFilter_15_);}
	.st37{mask:url(#mask-34_1_);fill-rule:evenodd;clip-rule:evenodd;fill:#FCBFBF;}
	.st38{filter:url(#Adobe_OpacityMaskFilter_16_);}
	.st39{mask:url(#mask-36_1_);fill-rule:evenodd;clip-rule:evenodd;fill:#FCBFBF;}
	.st40{fill-rule:evenodd;clip-rule:evenodd;fill:#002254;}
	.st41{fill-rule:evenodd;clip-rule:evenodd;fill:#002155;}
	.st42{filter:url(#Adobe_OpacityMaskFilter_17_);}
	.st43{mask:url(#mask-38_1_);fill-rule:evenodd;clip-rule:evenodd;fill:#0D99AB;}
	.st44{filter:url(#Adobe_OpacityMaskFilter_18_);}
	.st45{mask:url(#mask-40_1_);fill-rule:evenodd;clip-rule:evenodd;fill:#474747;}
	.st46{filter:url(#Adobe_OpacityMaskFilter_19_);}
	.st47{mask:url(#mask-42_1_);fill-rule:evenodd;clip-rule:evenodd;fill:#D3D4D6;}
	.st48{fill:none;stroke:#000000;stroke-width:0.5;}
	.st49{filter:url(#Adobe_OpacityMaskFilter_20_);}
	.st50{mask:url(#mask-44_1_);fill-rule:evenodd;clip-rule:evenodd;fill:#FFCD00;}
	.st51{fill:none;stroke:#000000;stroke-width:0.5;stroke-linecap:round;stroke-linejoin:round;}
</style>
<g id="UI-KIT">
	<g id="Correos_web_UIkit_54_Illustrations" transform="translate(-400.000000, -1184.000000)">
		<g id="atoms_x2F_img_x2F_ilustraciones_x2F_big_x2F_sigue_x5F_tu_x5F_envío" transform="translate(400.000000, 1184.000000)">
			<g id="Group-103" transform="translate(0.000000, 25.000000)">
				<g id="Group-5" transform="translate(0.000000, 30.597881)">
					<path id="Fill-1" class="st0" d="M51.2,31.7C7.6,10.2-40.7,87.4,57.1,137.9C154.8,188.4,272.9,65,217.6,15.8
						C162.3-33.4,94.8,53.3,51.2,31.7"/>
					<polygon id="Fill-3" class="st1" points="160.1,136.1 210.2,112.7 190.6,70.5 140.4,93.9 					"/>
				</g>
				<g id="Group-8" transform="translate(155.947020, 107.419073)">
					<g id="Clip-7">
					</g>
				</g>
				<polygon id="Fill-9" class="st1" points="140.4,124.5 179.2,106.5 163.2,72.3 124.5,90.3 				"/>
				<g id="Group" transform="translate(137.359498, 78.054154)">
					<polygon id="Fill-76" class="st2" points="7,22 22,15 15,0 0,7 					"/>
					<polygon id="Fill-76-Copy" class="st2" points="29.6,57 48,48.4 39.4,30 21,38.6 					"/>
					
						<g id="atoms_x2F_ico_x2F_24px_x2F_ico_x5F_correos" transform="translate(11.000000, 11.000000) rotate(-25.000000) translate(-11.000000, -11.000000) translate(6.000000, 6.000000)">
						<path id="Fill-1_1_" class="st3" d="M6.9,4L5,4L3.1,4V3.7V3.4l1.9,0l1.9,0v0.3V4z M5.6,7c0-0.4-0.3-0.6-0.6-0.6
							C4.7,6.4,4.4,6.7,4.4,7c0,0.3,0.3,0.6,0.6,0.6C5.3,7.7,5.6,7.4,5.6,7L5.6,7z M5,8.9c2.2,0,4-1.7,4.3-3.8H8.7
							C8.4,6.9,6.9,8.3,5,8.3C4.3,8.3,3.8,7.7,3.8,7S4.3,5.8,5,5.8c0.7,0,1.2,0.5,1.2,1.3c0,0.1,0,0.3-0.1,0.4
							C6.4,7.3,6.7,7.2,6.9,7C6.9,6,6,5.1,5,5.1C4,5.1,3.1,6,3.1,7C3.1,8.1,4,8.9,5,8.9L5,8.9z M0.7,5.1c0.2,1.4,1,2.6,2.2,3.2
							C2.6,8,2.5,7.5,2.5,7l0,0l0-1.9L0.7,5.1z M8.1,4.5l1.9,0c0,2.8-2.2,5.1-5,5.1S0,7.3,0,4.5l3.1,0l0,0.9C3.6,4.9,4.3,4.5,5,4.5
							c1.2,0,2.2,0.8,2.4,2C7.9,6,8.1,5.3,8.1,4.5L8.1,4.5z M6.6,1c0.7,0,1.3,0.6,1.3,1.3v0.6l-0.6,0l0-0.6c0-0.3-0.3-0.6-0.6-0.6
							c-0.1,0-0.1,0-0.2,0c0.1,0.2,0.2,0.4,0.2,0.6l0,0.6H5.9l0-0.6c0-0.3-0.3-0.6-0.6-0.6l0,1.3l-0.6,0l0-1.3
							c-0.3,0-0.6,0.3-0.6,0.6l0,0.6l-0.6,0l0-0.6c0-0.2,0.1-0.4,0.2-0.6c-0.1,0-0.1,0-0.2,0c-0.3,0-0.6,0.3-0.6,0.6l0,0.6l-0.6,0
							l0-0.6C2.2,1.6,2.7,1,3.4,1c0.2,0,0.4,0.1,0.6,0.2C4.2,1.1,4.5,1,4.7,1c0.1,0,0.2,0,0.3,0c0.1,0,0.2,0,0.3,0
							c0.2,0,0.4,0.1,0.6,0.2C6.1,1.1,6.3,1,6.6,1L6.6,1z M5.1,0.3l0.3,0v0.3l-0.3,0v0.3l-0.3,0V0.6l-0.3,0V0.3l0.3,0V0l0.3,0V0.3z"
							/>
					</g>
					
						<g id="atoms_x2F_ico_x2F_24px_x2F_ico_x5F_correos-copy" transform="translate(34.500000, 43.500000) rotate(-25.000000) translate(-34.500000, -43.500000) translate(28.000000, 37.000000)">
						<path id="Fill-1_2_" class="st3" d="M8.9,5.3l-2.4,0l-2.4,0V4.8V4.4l2.4,0l2.4,0v0.4V5.3z M7.3,9.2c0-0.5-0.4-0.8-0.8-0.8
							c-0.4,0-0.8,0.4-0.8,0.8c0,0.5,0.4,0.8,0.8,0.8C6.9,10,7.3,9.6,7.3,9.2L7.3,9.2z M6.5,11.6c2.9,0,5.2-2.1,5.6-4.9l-0.8,0
							c-0.4,2.3-2.4,4.1-4.8,4.1c-0.9,0-1.6-0.7-1.6-1.6c0-0.9,0.7-1.6,1.6-1.6s1.6,0.7,1.6,1.6c0,0.2,0,0.4-0.1,0.5
							c0.3-0.1,0.6-0.3,0.9-0.5c0-1.4-1.1-2.5-2.4-2.5c-1.3,0-2.4,1.1-2.4,2.5C4.1,10.5,5.2,11.6,6.5,11.6L6.5,11.6z M0.9,6.7
							c0.3,1.8,1.3,3.4,2.9,4.2c-0.3-0.5-0.5-1.1-0.5-1.8l0,0l0-2.5L0.9,6.7z M10.6,5.9l2.4,0c0,3.6-2.9,6.6-6.5,6.6S0,9.5,0,5.9
							l4.1,0V7c0.6-0.7,1.5-1.1,2.4-1.1c1.6,0,2.8,1.1,3.2,2.6C10.2,7.7,10.6,6.8,10.6,5.9L10.6,5.9z M8.5,1.3
							c0.9,0,1.6,0.7,1.6,1.6v0.8l-0.8,0V3c0-0.5-0.4-0.8-0.8-0.8c-0.1,0-0.1,0-0.2,0C8.5,2.4,8.5,2.7,8.5,3v0.8l-0.8,0l0-0.8
							c0-0.5-0.4-0.8-0.8-0.8l0,1.6l-0.8,0l0-1.6C5.6,2.2,5.3,2.5,5.3,3v0.8l-0.8,0V3c0-0.3,0.1-0.6,0.2-0.8c-0.1,0-0.1,0-0.2,0
							C4,2.2,3.7,2.5,3.7,3l0,0.8l-0.8,0l0-0.8c0-0.9,0.7-1.6,1.6-1.6c0.3,0,0.6,0.1,0.8,0.2c0.2-0.1,0.5-0.2,0.8-0.2
							c0.1,0,0.3,0,0.4,0.1c0.1,0,0.3-0.1,0.4-0.1c0.3,0,0.6,0.1,0.8,0.2C8,1.4,8.2,1.3,8.5,1.3L8.5,1.3z M6.7,0.4l0.4,0v0.4l-0.4,0
							v0.4l-0.4,0V0.7l-0.4,0V0.4l0.4,0l0-0.4l0.4,0L6.7,0.4z"/>
					</g>
				</g>
				<g id="Group-16" transform="translate(75.284768, 16.770066)">
					<g id="Clip-15">
					</g>
					<defs>
						<filter id="Adobe_OpacityMaskFilter" filterUnits="userSpaceOnUse" x="-2.7" y="-2.7" width="11.7" height="11.7">
							<feColorMatrix  type="matrix" values="1 0 0 0 0  0 1 0 0 0  0 0 1 0 0  0 0 0 1 0"/>
						</filter>
					</defs>
					<mask maskUnits="userSpaceOnUse" x="-2.7" y="-2.7" width="11.7" height="11.7" id="mask-4_1_">
						<g class="st4">
							<path id="path-3_1_" class="st5" d="M0.2,2.3c-0.5,1.6,0.4,3.4,2,3.9l0,0c1.6,0.5,3.4-0.4,3.9-2.1l0,0c0.5-1.6-0.4-3.4-2-3.9
								l0,0C3.7,0.1,3.4,0.1,3.1,0.1l0,0C1.8,0.1,0.6,0.9,0.2,2.3L0.2,2.3z"/>
						</g>
					</mask>
					<polygon id="Fill-14" class="st6" points="-2.7,9 9,9 9,-2.7 -2.7,-2.7 					"/>
				</g>
				<g id="Group-19" transform="translate(59.920530, 21.379338)">
					<g id="Clip-18">
					</g>
					<defs>
						<filter id="Adobe_OpacityMaskFilter_1_" filterUnits="userSpaceOnUse" x="-2.4" y="-2.2" width="16.6" height="22.1">
							<feColorMatrix  type="matrix" values="1 0 0 0 0  0 1 0 0 0  0 0 1 0 0  0 0 0 1 0"/>
						</filter>
					</defs>
					<mask maskUnits="userSpaceOnUse" x="-2.4" y="-2.2" width="16.6" height="22.1" id="mask-6_1_">
						<g class="st7">
							<path id="path-5_1_" class="st5" d="M0.4,12c-0.4,2.3,1.9,4.2,4.1,4.9l0,0c2.6,0.8,4-0.3,4.8-2.9l0,0l2.3-7.5l-7-6.1L0.4,12z
								"/>
						</g>
					</mask>
					<polygon id="Fill-17" class="st8" points="-2.4,19.9 14.3,19.9 14.3,-2.2 -2.4,-2.2 					"/>
				</g>
				<g id="Group-22" transform="translate(62.993377, 22.147550)">
					<g id="Clip-21">
					</g>
					<defs>
						<filter id="Adobe_OpacityMaskFilter_2_" filterUnits="userSpaceOnUse" x="-2" y="-2.7" width="13.4" height="15.2">
							<feColorMatrix  type="matrix" values="1 0 0 0 0  0 1 0 0 0  0 0 1 0 0  0 0 0 1 0"/>
						</filter>
					</defs>
					<mask maskUnits="userSpaceOnUse" x="-2" y="-2.7" width="13.4" height="15.2" id="mask-8_1_">
						<g class="st9">
							<path id="path-7_1_" class="st5" d="M7.3,9.8l1.4-4.7l-8-5C0.7,8.8,7.3,9.8,7.3,9.8L7.3,9.8z"/>
						</g>
					</mask>
					<polygon id="Fill-20" class="st10" points="-2,12.5 11.4,12.5 11.4,-2.7 -2,-2.7 					"/>
				</g>
				<g id="Group-25" transform="translate(61.456954, 3.710464)">
					<g id="Clip-24">
					</g>
					<defs>
						<filter id="Adobe_OpacityMaskFilter_3_" filterUnits="userSpaceOnUse" x="-2.6" y="-2.6" width="25.3" height="30.5">
							<feColorMatrix  type="matrix" values="1 0 0 0 0  0 1 0 0 0  0 0 1 0 0  0 0 0 1 0"/>
						</filter>
					</defs>
					<mask maskUnits="userSpaceOnUse" x="-2.6" y="-2.6" width="25.3" height="30.5" id="mask-10_1_">
						<g class="st11">
							<path id="path-9_1_" class="st5" d="M2.2,6l-1.8,6.9c-1.4,5.3,1.8,10.4,7,12l0,0c4.5,1.1,9-1.6,10-5.2l0,0l2.3-8.6
								c1.2-4.5-1.3-9.2-5.8-10.6l0,0C13,0.3,12,0.1,11.1,0.1l0,0C7.2,0.1,3.3,2.3,2.2,6L2.2,6z"/>
						</g>
					</mask>
					<polygon id="Fill-23" class="st12" points="-2.6,27.9 22.7,27.9 22.7,-2.6 -2.6,-2.6 					"/>
				</g>
				<path id="Stroke-26" class="st13" d="M74.6,20.1L74.4,21c0,0.2-0.3,0.4-0.5,0.3l-0.5-0.2"/>
				<g id="Group-30" transform="translate(76.052980, 17.538278)">
					<g id="Clip-29">
					</g>
					<defs>
						<filter id="Adobe_OpacityMaskFilter_4_" filterUnits="userSpaceOnUse" x="-2.1" y="-2" width="7.1" height="7.1">
							<feColorMatrix  type="matrix" values="1 0 0 0 0  0 1 0 0 0  0 0 1 0 0  0 0 0 1 0"/>
						</filter>
					</defs>
					<mask maskUnits="userSpaceOnUse" x="-2.1" y="-2" width="7.1" height="7.1" id="mask-12_1_">
						<g class="st14">
							<path id="path-11_1_" class="st5" d="M0.7,1.3c-0.1,0.4,0.1,0.9,0.6,1l0,0c0.4,0.1,0.9-0.1,1-0.6l0,0c0.1-0.4-0.1-0.9-0.6-1
								l0,0c-0.1,0-0.1,0-0.2,0l0,0C1.1,0.7,0.8,1,0.7,1.3L0.7,1.3z"/>
						</g>
					</mask>
					<polygon id="Fill-28" class="st15" points="-2.1,5.1 5,5.1 5,-2 -2.1,-2 					"/>
				</g>
				<g id="Group-33" transform="translate(69.907285, 16.001854)">
					<g id="Clip-32">
					</g>
					<defs>
						<filter id="Adobe_OpacityMaskFilter_5_" filterUnits="userSpaceOnUse" x="-2.5" y="-2.2" width="7.1" height="7.1">
							<feColorMatrix  type="matrix" values="1 0 0 0 0  0 1 0 0 0  0 0 1 0 0  0 0 0 1 0"/>
						</filter>
					</defs>
					<mask maskUnits="userSpaceOnUse" x="-2.5" y="-2.2" width="7.1" height="7.1" id="mask-14_1_">
						<g class="st16">
							<path id="path-13_1_" class="st5" d="M0.3,1.1C0.1,1.5,0.4,2,0.8,2.1l0,0c0.4,0.1,0.9-0.1,1-0.6l0,0c0.1-0.4-0.1-0.9-0.6-1
								l0,0c-0.1,0-0.1,0-0.2,0l0,0C0.7,0.5,0.4,0.7,0.3,1.1L0.3,1.1z"/>
						</g>
					</mask>
					<polygon id="Fill-31" class="st17" points="-2.5,4.8 4.6,4.8 4.6,-2.2 -2.5,-2.2 					"/>
				</g>
				<g id="Group-36" transform="translate(69.907285, 22.147550)">
					<g id="Clip-35">
					</g>
					<defs>
						<filter id="Adobe_OpacityMaskFilter_6_" filterUnits="userSpaceOnUse" x="-2.6" y="-2.7" width="10.3" height="7.8">
							<feColorMatrix  type="matrix" values="1 0 0 0 0  0 1 0 0 0  0 0 1 0 0  0 0 0 1 0"/>
						</filter>
					</defs>
					<mask maskUnits="userSpaceOnUse" x="-2.6" y="-2.7" width="10.3" height="7.8" id="mask-16_1_">
						<g class="st18">
							<path id="path-15_1_" class="st5" d="M3.1,2.4C4.8,2.4,5,1.1,5,1.1l0,0L0.1,0C0.1,0,0.5,2.3,3.1,2.4L3.1,2.4z"/>
						</g>
					</mask>
					<polygon id="Fill-34" class="st19" points="-2.6,5.1 7.7,5.1 7.7,-2.7 -2.6,-2.7 					"/>
				</g>
				<g id="Group-39" transform="translate(59.152318, 12.929007)">
					<g id="Clip-38">
					</g>
					<defs>
						<filter id="Adobe_OpacityMaskFilter_7_" filterUnits="userSpaceOnUse" x="-2.3" y="-2.6" width="11.2" height="11.2">
							<feColorMatrix  type="matrix" values="1 0 0 0 0  0 1 0 0 0  0 0 1 0 0  0 0 0 1 0"/>
						</filter>
					</defs>
					<mask maskUnits="userSpaceOnUse" x="-2.3" y="-2.6" width="11.2" height="11.2" id="mask-18_1_">
						<g class="st20">
							<path id="path-17_1_" class="st5" d="M0.4,2.9c-0.1,1.6,1.1,3,2.7,3.1l0,0c1.6,0.1,3-1.1,3.1-2.7l0,0c0.1-1.6-1.1-3-2.7-3.1
								l0,0c-0.1,0-0.1,0-0.2,0l0,0C1.8,0.2,0.5,1.3,0.4,2.9L0.4,2.9z"/>
						</g>
					</mask>
					<polygon id="Fill-37" class="st21" points="-2.3,8.7 8.9,8.7 8.9,-2.6 -2.3,-2.6 					"/>
				</g>
				<g id="Group-42" transform="translate(60.688742, 0.637616)">
					<g id="Clip-41">
					</g>
					<defs>
						<filter id="Adobe_OpacityMaskFilter_8_" filterUnits="userSpaceOnUse" x="-2.5" y="-2.2" width="22.8" height="22.3">
							<feColorMatrix  type="matrix" values="1 0 0 0 0  0 1 0 0 0  0 0 1 0 0  0 0 0 1 0"/>
						</filter>
					</defs>
					<mask maskUnits="userSpaceOnUse" x="-2.5" y="-2.2" width="22.8" height="22.3" id="mask-20_1_">
						<g class="st22">
							<path id="path-19_1_" class="st5" d="M8.8,0.6C4,1.2,2.4,5.1,1.6,6.9l0,0c-0.3,0.7-2.7,5.6-0.3,6.5l0,0c2.6,1,0.8,4,0.8,4
								l0,0L10,6.8L16.5,8l1-3.1c0,0-1.7-4.3-7.3-4.3l0,0C9.8,0.5,9.3,0.6,8.8,0.6L8.8,0.6z"/>
						</g>
					</mask>
					<polygon id="Fill-40" class="st23" points="-2.5,20.1 20.3,20.1 20.3,-2.2 -2.5,-2.2 					"/>
				</g>
				<g id="Group-45" transform="translate(76.821192, 5.246887)">
					<g id="Clip-44">
					</g>
					<defs>
						<filter id="Adobe_OpacityMaskFilter_9_" filterUnits="userSpaceOnUse" x="-2.3" y="-2.6" width="11.6" height="20">
							<feColorMatrix  type="matrix" values="1 0 0 0 0  0 1 0 0 0  0 0 1 0 0  0 0 0 1 0"/>
						</filter>
					</defs>
					<mask maskUnits="userSpaceOnUse" x="-2.3" y="-2.6" width="11.6" height="20" id="mask-22_1_">
						<g class="st24">
							<path id="path-21_1_" class="st5" d="M1.4,0.2l-1,3.1c0,0,3.3,1,4.2,5.6l0,0L3,14.7l3.5-8c0.2-0.7,0.1-1.3-0.1-2l0,0
								C5.9,3.2,4.5,0.1,2.1,0.1l0,0C1.9,0.1,1.7,0.1,1.4,0.2L1.4,0.2z"/>
						</g>
					</mask>
					<polygon id="Fill-43" class="st25" points="-2.3,17.4 9.3,17.4 9.3,-2.6 -2.3,-2.6 					"/>
				</g>
				<g id="Group-48" transform="translate(62.225166, 4.478675)">
					<g id="Clip-47">
					</g>
					<defs>
						<filter id="Adobe_OpacityMaskFilter_10_" filterUnits="userSpaceOnUse" x="-2.5" y="-2.5" width="23.8" height="13.7">
							<feColorMatrix  type="matrix" values="1 0 0 0 0  0 1 0 0 0  0 0 1 0 0  0 0 0 1 0"/>
						</filter>
					</defs>
					<mask maskUnits="userSpaceOnUse" x="-2.5" y="-2.5" width="23.8" height="13.7" id="mask-24_1_">
						<g class="st26">
							<path id="path-23_1_" class="st5" d="M7.1,0.2C2,0.3,0.2,8,0.2,8l0,0C11,9.7,18.6,6.4,18.6,6.4l0,0l-2.4-3.6
								c0,0-3.9-2.6-8.9-2.6l0,0C7.2,0.2,7.1,0.2,7.1,0.2L7.1,0.2z"/>
						</g>
					</mask>
					<polygon id="Fill-46" class="st27" points="-2.5,11.2 21.3,11.2 21.3,-2.5 -2.5,-2.5 					"/>
				</g>
				<g id="Group-51" transform="translate(76.821192, 8.319735)">
					<g id="Clip-50">
					</g>
					<defs>
						<filter id="Adobe_OpacityMaskFilter_11_" filterUnits="userSpaceOnUse" x="-2.3" y="-2.5" width="9.9" height="12.2">
							<feColorMatrix  type="matrix" values="1 0 0 0 0  0 1 0 0 0  0 0 1 0 0  0 0 0 1 0"/>
						</filter>
					</defs>
					<mask maskUnits="userSpaceOnUse" x="-2.3" y="-2.5" width="9.9" height="12.2" id="mask-26_1_">
						<g class="st28">
							<path id="path-25_1_" class="st5" d="M0.4,0.3c0,0,1.1,3.7,4.3,6.7l0,0c0,0,1.4-6.8-3.7-6.8l0,0C0.8,0.2,0.6,0.3,0.4,0.3
								L0.4,0.3z"/>
						</g>
					</mask>
					<polygon id="Fill-49" class="st29" points="-2.3,9.7 7.6,9.7 7.6,-2.5 -2.3,-2.5 					"/>
				</g>
				<g id="Group-54" transform="translate(86.039735, 154.280000)">
					<g id="Clip-53">
					</g>
					<defs>
						<filter id="Adobe_OpacityMaskFilter_12_" filterUnits="userSpaceOnUse" x="-2" y="-2.2" width="26.8" height="22.1">
							<feColorMatrix  type="matrix" values="1 0 0 0 0  0 1 0 0 0  0 0 1 0 0  0 0 0 1 0"/>
						</filter>
					</defs>
					<mask maskUnits="userSpaceOnUse" x="-2" y="-2.2" width="26.8" height="22.1" id="mask-28_1_">
						<g class="st30">
							<path id="path-27_1_" class="st5" d="M18.8,1.2c-0.5,0.4-0.9,0.7-1.3,1l0,0c-1.1,0.7-2,1.1-3.5,1.4l0,0C12,4.1,8.9,4.1,8.1,4
								l0,0C7.8,4,1,8.9,0.8,9.1l0,0C0.7,9.2,0.6,9.5,0.7,10l0,0C0.8,10.3,1,11,1.4,11.9l0,0c0.4,0.9,0.8,1.9,1.3,2.8l0,0
								C2.8,15,3,15.3,3.2,15.6l0,0c0.4,0.7,0.8,1.2,1.1,1.5l0,0c0.8,0.2,2.3-0.4,3.9-1.2l0,0l3.8-2.6c0,0,0.1-0.1,0.1-0.1l0,0
								c0.1-0.1,0.1-0.5,0.1-0.9l0,0c0-0.2,0.2-0.4,0.5-0.5l0,0c0.3-0.1,0.7-0.2,1.2-0.3l0,0c0.5-0.1,1.3-0.5,1.8-0.8l0,0l3-2.1
								c0.5-0.3,1.1-0.9,1.5-1.4l0,0c1.7-2.3,1.9-4.1,1.8-5l0,0c0-0.1,0-0.2,0-0.3l0,0c-0.1-0.7-0.7-1.1-1.2-1.3l0,0
								c-0.1,0-0.2,0-0.4,0l0,0C19.8,0.5,19.2,0.8,18.8,1.2L18.8,1.2z"/>
						</g>
					</mask>
					<polygon id="Fill-52" class="st31" points="-2,19.8 24.8,19.8 24.8,-2.2 -2,-2.2 					"/>
				</g>
				<path id="Fill-55" class="st3" d="M86.4,165.6c0-0.1-0.1-0.1-0.2-0.2c-1.6-5.8-15.3-36-19.3-44.6c-0.5-1-0.8-1.7-0.9-2
					c-3-6.5-7.4-15.8-9.7-22.8c-1-2.8-1.3-5.6-1.3-8.4c0-0.4,0-0.7,0.1-1.1c0.1-1.8,0.4-3.5,0.7-5.2c0.1-0.4,0.1-0.7,0.3-1.1
					c0.2-0.9,0.5-1.8,0.8-2.6c0.2-0.4,0.3-0.9,0.5-1.3l0.1,0L70,78.3c0,0,1,0.7,2.7,6.9c2.5,9.4,6.4,26.7,10.4,35.6
					c0,0,14.9,36.6,14.9,36.6L86.4,165.6z"/>
				<g id="Group-59" transform="translate(26.887417, 157.352848)">
					<g id="Clip-58">
					</g>
					<defs>
						<filter id="Adobe_OpacityMaskFilter_13_" filterUnits="userSpaceOnUse" x="-2.7" y="-2.4" width="27.4" height="22.5">
							<feColorMatrix  type="matrix" values="1 0 0 0 0  0 1 0 0 0  0 0 1 0 0  0 0 0 1 0"/>
						</filter>
					</defs>
					<mask maskUnits="userSpaceOnUse" x="-2.7" y="-2.4" width="27.4" height="22.5" id="mask-30_1_">
						<g class="st32">
							<path id="path-29_1_" class="st5" d="M4.9,0.7C4.6,0.9,4.1,1.4,3.5,2.1l0,0c-0.6,0.7-1.4,1.5-2,2.3l0,0C1.2,4.7,1,5,0.8,5.3
								l0,0C0.4,5.9,0.1,6.5,0,6.9l0,0c0.2,0.8,1.3,2,2.7,3l0,0l4,2.3c0,0,0.1,0,0.1,0l0,0c0.1,0,0.4-0.1,0.8-0.2l0,0
								c0.2-0.1,0.4,0,0.7,0.2l0,0c0.2,0.2,0.5,0.6,0.8,1l0,0c0.3,0.4,1,1,1.5,1.3l0,0l3.2,1.8c0.5,0.3,1.3,0.6,1.9,0.8l0,0
								c2.8,0.6,4.6,0,5.3-0.4l0,0c0.1,0,0.2-0.1,0.3-0.2l0,0c0.6-0.4,0.7-1.1,0.6-1.6l0,0c-0.1-0.7-0.9-1.3-1.5-1.6l0,0
								c-0.6-0.3-1-0.5-1.4-0.7l0,0c-1.1-0.7-1.8-1.4-2.8-2.6l0,0c-1.3-1.6-2.6-4.4-2.8-5.1l0,0C13.4,4.6,6,0.4,5.8,0.4l0,0
								c0,0-0.1,0-0.1,0l0,0C5.5,0.4,5.2,0.5,4.9,0.7L4.9,0.7z"/>
						</g>
					</mask>
					<polygon id="Fill-57" class="st33" points="-2.7,20.1 24.7,20.1 24.7,-2.4 -2.7,-2.4 					"/>
				</g>
				<path id="Fill-60" class="st3" d="M72.3,75.8c0,0-0.2,1.8-0.3,3.8c0,0.3,0,0.7-0.1,1.1c-0.1,1.1-0.1,2.2-0.2,2.8
					c0,0.7-0.1,1.5-0.1,2.4c0,0.3,0,0.7-0.1,1.1c-0.5,8.7-3.7,27.1-8.3,42.9c-10.2,18-20.2,35.7-20.2,35.7l-11-6.4l-1.5-0.9
					c0.1-0.2,0.3-0.5,0.5-0.9c3.4-5.8,16.6-30.6,18.4-34c0,0,0,0,0-0.1c1.9-2.5,4.6-15,4.5-23.3c0-0.4,0-0.9,0-1.3
					c0-0.3,0-0.6-0.1-1c0,0,0,0,0-0.1c0-0.2,0-0.4-0.1-0.6c0-0.4-0.1-0.8-0.2-1.2c0-0.2-0.1-0.4-0.1-0.5c-0.2-0.9-0.4-1.9-0.5-2.8
					c-0.2-1.4-0.2-2.7-0.1-4c0-0.4,0-0.8,0.1-1.2c0-0.2,0-0.3,0-0.4c0-0.4,0.1-0.7,0.1-1.1c0-0.3,0.1-0.5,0.1-0.8
					c0.1-0.4,0.1-0.7,0.2-1c0.1-0.5,0.2-1,0.3-1.5c0.1-0.3,0.1-0.5,0.2-0.8c0.1-0.4,0.2-0.7,0.3-1c0.1-0.4,0.2-0.8,0.4-1.1
					c0.2-0.7,0.5-1.4,0.8-2c0.3-0.6,0.6-1.2,0.9-1.8H72.3z"/>
				<g id="Group-64" transform="translate(48.397351, 29.829669)">
					<g id="Clip-63">
					</g>
					<defs>
						<filter id="Adobe_OpacityMaskFilter_14_" filterUnits="userSpaceOnUse" x="-2.1" y="-2.2" width="31.2" height="61.9">
							<feColorMatrix  type="matrix" values="1 0 0 0 0  0 1 0 0 0  0 0 1 0 0  0 0 0 1 0"/>
						</filter>
					</defs>
					<mask maskUnits="userSpaceOnUse" x="-2.1" y="-2.2" width="31.2" height="61.9" id="mask-32_1_">
						<g class="st34">
							<path id="path-31_1_" class="st5" d="M5.2,12.6C0.3,26.6,0.6,55.9,0.6,55.9l0,0c0,0,4.1,1,12.5,1l0,0c8.5,0,13.1-1,13.1-1
								l0,0c-0.1-1.9-1.7-20.5-1.1-23.7l0,0c0.5-3.2,1.5-8.8,1.2-13.5l0,0c-0.2-2.6-5.1-13.4-5.5-13.1l0,0c-2.7,1.8-6.8-3.5-7.7-5
								l0,0C12.8,1.4,7.9,4.7,5.2,12.6L5.2,12.6z"/>
						</g>
					</mask>
					<polygon id="Fill-62" class="st35" points="-2.1,59.7 29.1,59.7 29.1,-2.2 -2.1,-2.2 					"/>
				</g>
				<g id="Group-67" transform="translate(90.649007, 66.703841)">
					<g id="Clip-66">
					</g>
					<defs>
						<filter id="Adobe_OpacityMaskFilter_15_" filterUnits="userSpaceOnUse" x="-2.4" y="-2.4" width="21.3" height="13.3">
							<feColorMatrix  type="matrix" values="1 0 0 0 0  0 1 0 0 0  0 0 1 0 0  0 0 0 1 0"/>
						</filter>
					</defs>
					<mask maskUnits="userSpaceOnUse" x="-2.4" y="-2.4" width="21.3" height="13.3" id="mask-34_1_">
						<g class="st36">
							<path id="path-33_1_" class="st5" d="M5.6,1.4c-1,0.4-1.9-0.4-4.3-1l0,0L0.3,4.8c1.5-0.1,2.7,1,3.2,1l0,0
								c0.2,0,2.4,0.7,2.7,0.7l0,0c1.5,0.2,2.5-0.4,3.3-0.9l0,0c0.7-0.5,1.2-1,1.8-0.9l0,0c3.5,0.4,0.6,4.1,2.5,3.4l0,0
								c3.4-1.2,3.1-5.8-0.5-7.3l0,0c-0.7-0.3-1.6-0.4-2.6-0.4l0,0C8.9,0.3,7,0.7,5.6,1.4L5.6,1.4z"/>
						</g>
					</mask>
					<polygon id="Fill-65" class="st37" points="-2.4,10.9 18.9,10.9 18.9,-2.4 -2.4,-2.4 					"/>
				</g>
				<g id="Group-70" transform="translate(59.152318, 39.048212)">
					<g id="Clip-69">
					</g>
					<defs>
						<filter id="Adobe_OpacityMaskFilter_16_" filterUnits="userSpaceOnUse" x="-2.3" y="-2.7" width="40.8" height="38.8">
							<feColorMatrix  type="matrix" values="1 0 0 0 0  0 1 0 0 0  0 0 1 0 0  0 0 0 1 0"/>
						</filter>
					</defs>
					<mask maskUnits="userSpaceOnUse" x="-2.3" y="-2.7" width="40.8" height="38.8" id="mask-36_1_">
						<g class="st38">
							<path id="path-35_1_" class="st5" d="M3.6,0.4c-3.3,1.8-4.1,5.2-2,9.2l0,0c2,3.6,10.4,19.2,12.5,20.2l0,0
								c4.8,2.4,20.5,3.6,20.9,3.6l0,0l0.8-4.5c-3.5-0.8-13.3-5.9-15.5-7.3l0,0C19.2,21,11.2,4,9.9,2.8l0,0C8.7,1.7,7,0,5.2,0l0,0
								C4.7,0,4.1,0.2,3.6,0.4L3.6,0.4z"/>
						</g>
					</mask>
					<polygon id="Fill-68" class="st39" points="-2.3,36.2 38.5,36.2 38.5,-2.7 -2.3,-2.7 					"/>
				</g>
				<g id="Group-83" transform="translate(102.172185, 72.081325)">
					<path id="Fill-71" class="st40" d="M65.3,91.3l-2.7,1.3L26.4,14.8c-1.2-2.6-4.6-5.4-7.4-6.1L0.4,3.3l0.8-2.9l18.7,5.4
						c3.6,1,7.7,4.4,9.3,7.8L65.3,91.3z"/>
					<path id="Fill-73" class="st41" d="M107.3,71.7c0.2,0.5,0,1-0.5,1.3l-46,23.5l-3.2,1.7c-1.5,0.8-3.3,0.2-4-1.3
						c-0.8-1.5-0.2-3.3,1.3-4.1l0.2-0.1l0.5-0.2l2-0.8l0.8-0.3l2-0.8l1.1-0.5l2.8-1.2L106,71.2C106.5,71,107.1,71.2,107.3,71.7"/>
					<polygon id="Fill-75" class="st41" points="25.9,23.6 58.8,94.4 56.8,95.3 23.9,24.5 					"/>
					<polygon id="Fill-77" class="st41" points="31.7,22.5 23.5,26.4 22.2,23.6 30.4,19.8 					"/>
					<polygon id="Fill-79" class="st41" points="42.7,46.2 34.5,50 33.2,47.3 41.4,43.5 					"/>
					<polygon id="Fill-81" class="st41" points="37.8,51.8 42.3,64 47.1,85.3 49.2,94.3 46.2,94.9 44.4,87 36.9,52.3 					"/>
				</g>
				<g id="Group-86" transform="translate(98.331126, 70.544901)">
					<g id="Clip-85">
					</g>
					<defs>
						<filter id="Adobe_OpacityMaskFilter_17_" filterUnits="userSpaceOnUse" x="-2.2" y="-2.4" width="17.6" height="13">
							<feColorMatrix  type="matrix" values="1 0 0 0 0  0 1 0 0 0  0 0 1 0 0  0 0 0 1 0"/>
						</filter>
					</defs>
					<mask maskUnits="userSpaceOnUse" x="-2.2" y="-2.4" width="17.6" height="13" id="mask-38_1_">
						<g class="st42">
							<path id="path-37_1_" class="st5" d="M0.7,2.2C0.3,3.5,1.1,4.9,2.4,5.3l0,0l7.2,2.5c0.6,0.2,1.2,0.1,1.7-0.1l0,0
								c0.6-0.3,1.2-0.9,1.4-1.6l0,0c0.4-1.3-0.4-2.7-1.8-3.1l0,0L3.7,0.4C3.5,0.3,3.3,0.3,3.1,0.3l0,0C2,0.3,1,1.1,0.7,2.2L0.7,2.2
								z"/>
						</g>
					</mask>
					<polygon id="Fill-84" class="st43" points="-2.2,10.6 15.4,10.6 15.4,-2.4 -2.2,-2.4 					"/>
				</g>
				<g id="Group-89" transform="translate(144.423841, 158.121060)">
					<g id="Clip-88">
					</g>
					<defs>
						<filter id="Adobe_OpacityMaskFilter_18_" filterUnits="userSpaceOnUse" x="-2" y="-2.5" width="21.8" height="21.9">
							<feColorMatrix  type="matrix" values="1 0 0 0 0  0 1 0 0 0  0 0 1 0 0  0 0 0 1 0"/>
						</filter>
					</defs>
					<mask maskUnits="userSpaceOnUse" x="-2" y="-2.5" width="21.8" height="21.9" id="mask-40_1_">
						<g class="st44">
							<path id="path-39_1_" class="st5" d="M8.8,0.2C7.7,0.2,6.5,0.5,5.4,1l0,0c-4.1,1.9-5.9,6.8-4,10.9l0,0c1.4,3,4.3,4.7,7.4,4.7
								l0,0h0.1c1.1,0,2.3-0.3,3.4-0.8l0,0c4.1-1.9,5.9-6.8,4-10.9l0,0C14.9,2,12,0.2,8.8,0.2L8.8,0.2L8.8,0.2z"/>
						</g>
					</mask>
					<polygon id="Fill-87" class="st45" points="-2,19.4 19.8,19.4 19.8,-2.5 -2,-2.5 					"/>
				</g>
				<g id="Group-92" transform="translate(146.728477, 160.425695)">
					<g id="Clip-91">
					</g>
					<defs>
						<filter id="Adobe_OpacityMaskFilter_19_" filterUnits="userSpaceOnUse" x="-2.2" y="-2.6" width="17.5" height="17.5">
							<feColorMatrix  type="matrix" values="1 0 0 0 0  0 1 0 0 0  0 0 1 0 0  0 0 0 1 0"/>
						</filter>
					</defs>
					<mask maskUnits="userSpaceOnUse" x="-2.2" y="-2.6" width="17.5" height="17.5" id="mask-42_1_">
						<g class="st46">
							<path id="path-41_1_" class="st5" d="M4,0.7c-3,1.4-4.3,5-2.9,8l0,0c1.4,3,5,4.3,8,2.9l0,0c3-1.4,4.3-5,2.9-8l0,0
								c-1-2.2-3.2-3.5-5.5-3.5l0,0C5.7,0.1,4.8,0.3,4,0.7L4,0.7z"/>
						</g>
					</mask>
					<polygon id="Fill-90" class="st47" points="-2.2,14.9 15.3,14.9 15.3,-2.6 -2.2,-2.6 					"/>
				</g>
				<path id="Stroke-93" class="st48" d="M149.2,168.5c1.1,2.3,3.7,3.2,6,2.2c2.3-1.1,3.2-3.7,2.2-6c-1.1-2.3-3.7-3.2-6-2.2
					C149.1,163.5,148.2,166.2,149.2,168.5"/>
				<g id="Group-97" transform="translate(56.847682, 35.975364)">
					<g id="Clip-96">
					</g>
					<defs>
						<filter id="Adobe_OpacityMaskFilter_20_" filterUnits="userSpaceOnUse" x="-2.2" y="-2" width="22.8" height="26.2">
							<feColorMatrix  type="matrix" values="1 0 0 0 0  0 1 0 0 0  0 0 1 0 0  0 0 0 1 0"/>
						</filter>
					</defs>
					<mask maskUnits="userSpaceOnUse" x="-2.2" y="-2" width="22.8" height="26.2" id="mask-44_1_">
						<g class="st49">
							<path id="path-43_1_" class="st5" d="M1.1,4.3c-2.9,2.4,6.7,17.1,6.7,17.1l0,0l10.1-7.8c0,0-7-10.4-8.7-12.3l0,0
								C8.8,0.9,8.3,0.7,7.7,0.7l0,0C5.8,0.7,3.2,2.5,1.1,4.3L1.1,4.3z"/>
						</g>
					</mask>
					<polygon id="Fill-95" class="st50" points="-2.2,24.1 20.6,24.1 20.6,-2 -2.2,-2 					"/>
				</g>
				<g id="Group-102" transform="translate(42.251656, 45.962119)">
					<path id="Stroke-98" class="st51" d="M14.8,3.1c0,0,3.6,9,4.5,10.7l12.2-9.5l-2-3.9"/>
					<path id="Stroke-100" class="st51" d="M29.2,40.9c0,0-0.8,9.7-2.4,17.5c-1.5,7.8-5.9,25.5-5.9,25.5L0.7,119.6"/>
				</g>
			</g>
		</g>
	</g>
</g>
</svg>
